<svg id="svg" version="1.1" xmlns="http://www.w3.org/2000/svg" xmlns:xlink="http://www.w3.org/1999/xlink" width="400" height="176.81159420289856" viewBox="0, 0, 400,176.81159420289856"><g id="svgg"><path id="path0" d="M39.080 0.796 L 39.080 1.592 38.064 1.594 C 36.596 1.598,36.267 2.024,36.255 3.935 C 36.251 4.582,36.235 4.598,35.588 4.600 C 34.147 4.606,33.680 5.196,33.529 7.204 C 33.418 8.674,32.436 9.927,31.215 10.156 C 30.504 10.289,30.416 10.488,30.416 11.951 L 30.416 13.086 29.199 13.086 C 27.685 13.086,27.545 13.229,27.606 14.711 L 27.652 15.827 26.337 15.980 C 24.850 16.153,24.764 16.226,24.757 17.330 C 24.748 18.795,24.658 18.921,23.626 18.921 C 22.260 18.921,21.973 19.203,21.827 20.692 L 21.705 21.927 21.135 21.927 C 19.553 21.927,19.157 22.428,18.987 24.642 C 18.881 26.014,18.843 26.121,18.367 26.395 C 18.088 26.555,17.768 26.888,17.655 27.136 C 17.489 27.501,17.325 27.586,16.792 27.586 C 16.022 27.586,15.921 27.796,15.918 29.399 L 15.915 30.416 14.954 30.416 C 13.188 30.416,13.049 30.546,13.117 32.140 L 13.174 33.510 11.972 33.451 C 11.269 33.417,10.673 33.473,10.536 33.587 C 9.993 34.037,9.989 43.775,10.531 44.517 C 10.742 44.805,11.354 44.830,18.863 44.857 C 29.547 44.896,29.878 44.839,30.186 42.907 C 30.280 42.316,30.421 41.990,30.594 41.967 C 30.739 41.948,31.237 41.882,31.701 41.821 C 32.752 41.683,33.040 41.291,33.209 39.772 C 33.331 38.684,33.347 38.657,33.952 38.502 C 34.751 38.298,35.304 37.775,35.564 36.977 C 35.677 36.626,35.880 36.275,36.013 36.197 C 36.178 36.100,36.249 35.731,36.235 35.047 C 36.197 33.248,36.174 33.307,36.890 33.391 C 37.308 33.439,37.583 33.381,37.683 33.222 C 37.795 33.046,37.838 33.040,37.840 33.201 C 37.844 33.506,38.636 33.479,38.896 33.165 C 39.013 33.024,39.094 32.686,39.076 32.414 C 39.058 32.141,39.051 31.580,39.062 31.167 L 39.080 30.416 40.230 30.416 C 41.766 30.416,42.087 30.114,42.087 28.672 L 42.087 27.635 43.171 27.537 C 44.548 27.412,44.754 27.196,44.870 25.758 L 44.963 24.600 45.919 24.480 C 47.299 24.308,47.543 24.036,47.680 22.517 C 47.793 21.258,47.797 21.250,48.370 21.142 C 49.201 20.986,49.831 20.419,50.042 19.637 C 50.143 19.264,50.343 18.912,50.488 18.857 C 50.691 18.779,50.752 18.430,50.752 17.335 L 50.752 15.915 66.622 15.946 C 75.351 15.962,81.978 16.022,81.348 16.078 C 79.998 16.199,79.759 16.484,79.755 17.985 L 79.752 18.905 79.089 19.012 C 77.801 19.219,77.632 19.284,77.378 19.676 C 77.237 19.893,77.030 20.765,76.918 21.613 C 76.683 23.397,75.982 24.357,74.682 24.678 L 74.005 24.845 73.954 26.216 L 73.902 27.586 72.693 27.586 C 71.200 27.586,71.101 27.695,71.143 29.271 L 71.176 30.504 69.870 30.532 C 68.347 30.564,68.331 30.580,68.169 32.191 L 68.050 33.375 66.968 33.474 C 65.642 33.594,65.485 33.777,65.326 35.389 C 65.211 36.552,65.186 36.605,64.743 36.605 C 63.249 36.606,62.691 37.515,62.438 40.365 C 62.272 42.228,62.374 42.109,60.938 42.109 C 59.542 42.109,59.416 42.252,59.416 43.843 L 59.416 44.916 58.444 44.916 C 57.524 44.916,57.471 44.940,57.471 45.358 C 57.471 45.682,57.377 45.800,57.118 45.800 C 56.730 45.800,56.645 45.541,56.968 45.341 C 57.095 45.263,57.124 45.293,57.046 45.419 C 56.977 45.531,57.004 45.623,57.107 45.623 C 57.210 45.623,57.294 45.498,57.294 45.345 C 57.294 45.176,57.174 45.090,56.985 45.126 C 56.728 45.175,56.667 45.415,56.624 46.554 L 56.572 47.922 55.443 47.922 C 53.992 47.922,53.759 48.138,53.755 49.482 C 53.752 50.772,53.679 50.862,52.551 50.968 C 51.231 51.091,51.082 51.305,50.872 53.372 C 50.708 54.996,50.659 55.151,50.228 55.405 C 49.972 55.557,49.655 55.880,49.525 56.125 C 49.350 56.451,49.118 56.583,48.649 56.622 L 48.011 56.676 47.959 58.046 L 47.907 59.416 46.690 59.416 C 45.088 59.416,44.916 59.589,44.916 61.197 L 44.916 62.423 43.684 62.423 C 42.214 62.423,42.087 62.563,42.087 64.179 L 42.087 65.252 41.512 65.256 C 39.666 65.270,39.264 65.608,39.260 67.150 C 39.257 68.209,39.238 68.255,38.771 68.351 C 37.320 68.649,36.996 68.801,36.807 69.276 C 36.453 70.163,36.260 71.339,36.255 72.635 L 36.251 73.917 35.057 73.920 C 33.571 73.923,33.462 73.995,33.456 74.978 C 33.453 75.416,33.444 76.032,33.436 76.348 L 33.422 76.923 32.091 76.923 C 30.547 76.923,30.416 77.068,30.416 78.771 L 30.416 79.711 29.245 79.786 C 27.791 79.878,27.586 80.106,27.586 81.622 L 27.586 82.716 26.520 82.793 C 25.190 82.889,24.907 83.153,24.811 84.381 C 24.694 85.883,24.611 86.118,24.206 86.118 C 23.375 86.118,22.281 87.267,22.281 88.139 C 22.281 88.271,22.162 88.425,22.016 88.481 C 21.813 88.559,21.751 88.892,21.751 89.895 L 21.751 91.207 21.176 91.315 C 20.860 91.375,20.243 91.443,19.805 91.468 L 19.010 91.512 19.010 92.883 L 19.010 94.253 17.850 94.253 C 16.321 94.253,16.120 94.423,15.977 95.844 C 15.842 97.182,15.771 97.253,14.566 97.256 C 13.424 97.260,13.218 97.496,13.117 98.910 C 13.032 100.112,12.918 100.259,12.057 100.263 C 10.810 100.268,10.536 100.652,10.251 102.793 C 10.016 104.563,9.311 105.525,8.016 105.845 L 7.339 106.012 7.287 107.383 L 7.235 108.753 6.040 108.753 C 4.546 108.753,4.421 108.877,4.421 110.355 L 4.421 111.531 3.183 111.635 C 1.588 111.769,1.642 111.716,1.497 113.264 L 1.373 114.589 0.687 114.589 L 0.000 114.589 0.000 120.336 L 0.000 126.083 36.605 126.083 C 78.603 126.083,73.917 126.305,73.917 124.315 L 73.917 123.254 74.580 123.253 C 76.369 123.250,76.739 122.897,76.744 121.187 L 76.746 120.269 77.586 120.164 C 79.220 119.959,79.377 119.761,79.666 117.542 C 79.759 116.832,79.854 116.663,80.251 116.513 C 80.878 116.276,81.445 115.730,81.698 115.119 C 81.811 114.846,82.062 114.581,82.256 114.530 C 82.557 114.451,82.605 114.302,82.580 113.497 C 82.518 111.437,82.429 111.583,83.743 111.583 C 85.455 111.583,85.588 111.467,85.588 109.985 L 85.588 108.753 86.649 108.753 C 88.113 108.753,88.417 108.437,88.417 106.918 L 88.417 105.790 89.484 105.713 C 90.881 105.611,91.121 105.360,91.214 103.900 L 91.287 102.757 92.079 102.638 C 93.200 102.470,93.735 101.951,93.851 100.923 C 93.903 100.464,94.014 100.088,94.099 100.088 C 94.184 100.088,94.253 99.412,94.253 98.585 C 94.253 96.900,94.136 97.013,95.809 97.080 C 96.860 97.122,97.111 96.863,97.079 95.769 C 97.031 94.157,96.963 94.253,98.155 94.253 C 99.790 94.253,99.912 94.136,99.912 92.567 L 99.912 91.247 101.027 91.247 C 102.540 91.247,102.735 91.069,102.884 89.561 L 103.006 88.329 104.018 88.239 C 105.338 88.121,105.534 87.896,105.679 86.338 L 105.798 85.057 106.467 84.877 C 107.226 84.673,107.961 83.901,108.130 83.131 C 108.193 82.845,108.365 82.565,108.512 82.509 C 108.674 82.446,108.767 82.214,108.748 81.919 C 108.730 81.651,108.724 81.054,108.735 80.592 L 108.753 79.752 109.956 79.752 C 111.478 79.752,111.583 79.642,111.583 78.037 L 111.583 76.746 112.785 76.746 C 114.287 76.746,114.412 76.624,114.412 75.145 L 114.412 73.968 115.596 73.857 C 117.066 73.720,117.221 73.565,117.358 72.108 L 117.467 70.937 118.328 70.819 C 119.702 70.630,119.902 70.363,120.117 68.442 C 120.335 66.488,121.201 65.328,122.524 65.217 L 123.165 65.164 123.217 63.705 L 123.268 62.246 124.463 62.246 C 125.959 62.246,126.083 62.122,126.083 60.640 L 126.083 59.458 127.214 59.386 C 128.980 59.273,128.912 59.448,128.912 54.980 C 128.912 51.329,128.894 51.108,128.567 50.933 C 128.330 50.806,121.501 50.762,106.949 50.794 L 85.676 50.840 85.620 51.429 C 85.551 52.144,84.159 53.581,83.535 53.581 C 82.787 53.581,82.549 54.044,82.613 55.376 C 82.677 56.735,82.785 56.647,81.113 56.589 C 79.721 56.541,79.779 56.295,79.763 62.322 C 79.746 68.333,79.702 68.132,81.025 68.079 C 85.116 67.916,94.253 68.143,93.234 68.383 C 92.454 68.566,92.067 68.755,91.925 69.020 C 91.649 69.535,91.254 71.857,91.250 72.989 L 91.247 73.917 90.174 73.917 C 88.540 73.917,88.417 74.034,88.417 75.596 L 88.417 76.908 87.047 76.960 L 85.676 77.011 85.644 78.073 C 85.626 78.656,85.606 79.273,85.600 79.443 C 85.590 79.698,85.420 79.752,84.627 79.752 C 82.963 79.752,82.822 79.873,82.677 81.420 L 82.552 82.759 81.782 82.759 C 80.218 82.759,80.002 82.990,79.787 84.892 C 79.667 85.953,79.650 85.980,78.989 86.207 C 78.076 86.520,77.664 86.930,77.446 87.738 C 77.345 88.112,77.192 88.417,77.105 88.417 C 77.018 88.417,76.893 89.045,76.826 89.812 L 76.704 91.207 76.062 91.313 C 75.709 91.372,75.127 91.421,74.769 91.422 C 74.021 91.424,73.873 91.680,73.920 92.886 C 73.977 94.315,74.026 94.253,72.844 94.253 C 71.232 94.253,71.088 94.383,71.088 95.830 C 71.088 97.203,71.031 97.252,69.462 97.257 C 68.474 97.260,68.393 97.363,68.241 98.814 C 68.102 100.147,68.169 100.068,67.029 100.248 C 65.744 100.451,65.594 100.664,65.379 102.591 C 65.167 104.489,64.368 105.598,63.034 105.849 C 62.425 105.963,62.404 105.992,62.436 106.697 C 62.454 107.099,62.459 107.725,62.446 108.090 L 62.423 108.753 47.436 108.739 C 39.193 108.732,32.569 108.680,32.714 108.624 C 33.154 108.457,33.239 108.188,33.242 106.961 L 33.245 105.788 34.376 105.716 C 35.854 105.622,36.030 105.453,36.174 103.985 L 36.293 102.781 37.142 102.668 C 38.472 102.492,39.315 101.066,39.059 99.424 C 39.048 99.352,39.048 98.795,39.060 98.187 L 39.080 97.082 40.385 97.082 C 41.997 97.082,42.128 96.955,42.066 95.457 L 42.020 94.341 43.298 94.253 C 44.700 94.156,44.936 93.987,44.901 93.103 C 44.890 92.812,44.888 92.275,44.898 91.910 L 44.916 91.247 46.053 91.247 C 47.540 91.247,47.745 91.044,47.745 89.575 C 47.745 88.337,47.840 88.248,49.170 88.243 C 50.240 88.239,50.715 87.346,50.748 85.279 C 50.750 85.156,50.969 85.057,51.238 85.057 C 52.086 85.056,52.833 84.456,53.045 83.607 C 53.150 83.189,53.313 82.709,53.408 82.540 C 53.503 82.371,53.581 81.675,53.581 80.993 L 53.581 79.752 54.872 79.752 C 56.492 79.752,56.587 79.657,56.587 78.037 L 56.587 76.746 57.829 76.746 C 59.273 76.746,59.416 76.579,59.416 74.904 L 59.416 73.968 60.598 73.858 C 62.068 73.720,62.131 73.655,62.215 72.166 L 62.283 70.951 63.179 70.832 C 64.740 70.625,64.911 70.375,65.182 67.907 C 65.334 66.511,66.311 65.324,67.391 65.221 C 67.984 65.164,67.993 65.150,68.017 64.279 C 68.031 63.793,68.051 63.137,68.062 62.821 L 68.081 62.246 69.401 62.246 C 70.968 62.246,71.088 62.123,71.088 60.510 L 71.088 59.458 72.236 59.384 C 73.660 59.294,73.794 59.161,73.883 57.759 L 73.955 56.633 75.113 56.441 C 76.566 56.200,76.596 56.167,76.704 54.662 L 76.793 53.419 77.598 53.298 C 78.589 53.149,79.161 52.615,79.308 51.700 C 79.369 51.324,79.493 50.879,79.585 50.710 C 79.677 50.541,79.752 49.808,79.752 49.081 L 79.752 47.760 81.123 47.709 L 82.493 47.657 82.545 46.305 L 82.596 44.954 83.924 44.887 C 85.495 44.808,85.582 44.720,85.585 43.213 L 85.588 42.129 86.654 42.052 C 88.049 41.951,88.292 41.699,88.384 40.250 L 88.456 39.116 89.390 39.000 C 90.831 38.820,91.230 38.259,91.242 36.398 C 91.246 35.811,91.302 35.737,91.819 35.623 C 92.688 35.432,93.133 35.064,93.448 34.277 C 93.606 33.883,93.856 33.439,94.005 33.291 C 94.192 33.104,94.268 32.711,94.250 32.027 C 94.204 30.290,94.111 30.416,95.455 30.416 C 96.962 30.416,97.082 30.296,97.082 28.789 L 97.082 27.586 98.104 27.586 C 99.642 27.586,99.912 27.324,99.912 25.828 L 99.912 24.621 101.043 24.549 C 102.521 24.455,102.696 24.286,102.841 22.818 L 102.960 21.614 103.808 21.501 C 105.195 21.317,105.414 21.023,105.627 19.060 C 105.795 17.515,105.851 17.345,106.273 17.095 C 106.528 16.945,106.846 16.618,106.979 16.368 C 107.174 16.005,107.354 15.915,107.889 15.915 C 108.600 15.915,108.957 15.622,108.555 15.368 C 108.378 15.256,108.372 15.212,108.532 15.210 C 108.684 15.209,108.753 14.876,108.753 14.147 L 108.753 13.086 109.890 13.086 C 111.401 13.086,111.583 12.895,111.583 11.305 L 111.583 10.080 112.799 10.080 C 114.286 10.080,114.379 9.985,114.447 8.392 L 114.500 7.162 115.513 7.072 C 117.190 6.922,117.374 6.445,117.403 2.166 L 117.418 0.000 78.249 0.000 L 39.080 0.000 39.080 0.796 M108.974 117.531 C 108.853 117.582,108.753 117.855,108.753 118.136 C 108.753 118.768,107.360 120.246,106.759 120.250 C 106.023 120.255,105.877 120.504,105.787 121.909 L 105.701 123.254 105.149 123.272 C 104.846 123.282,104.335 123.275,104.014 123.257 C 103.109 123.207,102.918 123.484,102.918 124.841 L 102.918 126.032 101.651 126.138 C 100.155 126.263,100.095 126.331,100.091 127.875 L 100.088 129.048 98.957 129.120 C 97.531 129.211,97.260 129.428,97.257 130.481 C 97.253 131.882,97.144 132.065,96.235 132.201 C 94.960 132.392,94.024 134.116,94.261 135.833 C 94.280 135.966,94.285 136.452,94.274 136.914 L 94.253 137.754 92.937 137.754 C 91.411 137.754,91.434 137.731,91.301 139.327 L 91.199 140.546 89.974 140.616 C 88.506 140.699,88.424 140.792,88.420 142.396 L 88.417 143.590 87.281 143.590 C 85.793 143.590,85.588 143.792,85.588 145.263 C 85.588 146.508,85.507 146.596,84.355 146.596 C 83.291 146.596,82.919 147.023,82.775 148.411 C 82.636 149.755,82.711 149.636,81.789 149.975 C 81.022 150.257,80.283 151.162,80.283 151.820 C 80.283 152.038,80.167 152.261,80.026 152.315 C 79.834 152.389,79.770 152.733,79.773 153.678 C 79.778 155.179,79.838 155.095,78.759 155.100 C 77.096 155.107,76.923 155.194,76.921 156.026 C 76.920 156.432,76.870 157.062,76.810 157.427 L 76.700 158.090 75.496 158.090 C 74.084 158.090,74.071 158.104,73.956 159.706 L 73.869 160.920 59.348 160.920 L 44.828 160.920 44.860 160.168 C 44.877 159.755,44.897 159.082,44.904 158.672 L 44.916 157.928 46.286 157.877 L 47.657 157.825 47.709 156.454 L 47.760 155.084 48.416 155.066 C 48.777 155.056,49.319 155.061,49.622 155.078 C 50.473 155.123,50.752 154.712,50.752 153.412 L 50.752 152.296 51.922 152.221 C 53.375 152.129,53.581 151.901,53.581 150.389 L 53.581 149.299 54.681 149.184 C 56.063 149.039,56.214 148.882,56.454 147.328 C 56.644 146.101,56.664 146.065,57.158 146.065 C 59.009 146.065,59.476 144.577,59.386 138.956 C 59.343 136.254,59.268 135.235,59.098 135.066 C 58.837 134.805,40.744 134.612,40.905 134.872 C 40.953 134.950,40.622 135.013,40.169 135.013 L 39.346 135.013 39.346 135.837 C 39.346 136.290,39.277 136.617,39.192 136.565 C 39.108 136.513,39.069 136.784,39.105 137.168 C 39.166 137.803,39.138 137.859,38.789 137.792 C 38.526 137.742,38.379 137.822,38.322 138.046 C 38.246 138.338,38.235 138.340,38.217 138.064 C 38.201 137.818,38.033 137.754,37.407 137.754 C 36.433 137.754,36.251 138.026,36.251 139.485 L 36.251 140.532 35.081 140.642 C 33.528 140.787,33.422 140.897,33.422 142.374 L 33.422 143.590 32.652 143.590 C 30.976 143.590,30.600 143.953,30.595 145.573 C 30.592 146.476,30.316 146.773,29.478 146.773 C 28.219 146.773,27.625 148.210,27.595 151.326 L 27.586 152.255 26.270 152.255 C 24.744 152.255,24.768 152.232,24.634 153.827 L 24.532 155.047 23.308 155.116 C 21.839 155.199,21.757 155.293,21.753 156.897 L 21.751 158.090 20.519 158.090 C 19.051 158.090,18.921 158.231,18.921 159.833 L 18.921 160.891 17.767 161.015 C 16.393 161.162,16.092 161.467,16.092 162.713 C 16.092 163.819,15.961 164.103,15.448 164.103 C 14.186 164.103,13.446 164.827,13.387 166.122 C 13.367 166.547,13.291 166.859,13.218 166.815 C 13.145 166.770,13.086 167.376,13.086 168.159 L 13.086 169.584 11.892 169.587 C 10.520 169.590,10.258 169.704,10.246 170.303 C 10.241 170.540,10.195 172.107,10.143 173.784 L 10.050 176.835 47.819 176.835 L 85.588 176.835 85.588 176.127 L 85.588 175.420 86.790 175.420 C 88.312 175.420,88.417 175.309,88.417 173.705 L 88.417 172.414 89.620 172.414 C 91.127 172.414,91.247 172.294,91.247 170.787 L 91.247 169.584 91.998 169.564 C 93.816 169.513,94.219 169.114,94.243 167.341 L 94.253 166.600 95.093 166.478 C 96.592 166.261,96.813 165.937,96.983 163.714 C 97.091 162.294,98.130 160.994,99.241 160.887 L 99.823 160.831 99.875 159.372 L 99.926 157.913 100.582 157.896 C 100.943 157.887,101.530 157.892,101.888 157.909 C 102.622 157.942,102.965 157.540,102.911 156.709 C 102.894 156.447,102.889 155.984,102.899 155.679 L 102.918 155.125 104.089 155.051 C 105.522 154.959,105.747 154.722,105.747 153.301 C 105.747 152.199,105.856 152.080,106.867 152.075 C 108.110 152.069,108.451 151.628,108.662 149.752 C 108.771 148.787,108.795 148.750,109.372 148.641 C 110.057 148.513,110.843 147.686,110.993 146.936 C 111.047 146.664,111.202 146.399,111.337 146.348 C 111.518 146.278,111.583 145.882,111.583 144.841 L 111.583 143.428 112.953 143.376 L 114.324 143.324 114.375 141.954 L 114.427 140.584 115.569 140.584 C 117.097 140.584,117.418 140.280,117.418 138.838 L 117.418 137.800 118.453 137.683 C 119.934 137.515,120.097 137.345,120.203 135.860 L 120.292 134.611 121.251 134.532 C 122.612 134.419,123.223 133.361,123.248 131.073 C 123.252 130.636,123.406 130.359,123.873 129.950 C 124.213 129.651,124.492 129.311,124.492 129.195 C 124.492 129.056,124.711 129.009,125.131 129.058 C 125.903 129.148,126.098 128.917,126.070 127.940 C 126.059 127.551,126.058 126.983,126.067 126.678 L 126.083 126.123 127.331 126.052 C 128.170 126.005,128.635 125.897,128.749 125.723 C 129.083 125.211,128.870 118.183,128.508 117.822 C 128.199 117.513,109.670 117.237,108.974 117.531 " stroke="none" fill="#fcc404" fill-rule="evenodd"></path><path id="path1" d="M227.790 0.868 C 227.824 1.345,227.805 1.706,227.747 1.670 C 227.690 1.635,227.647 2.298,227.652 3.145 C 227.661 4.545,227.630 4.688,227.315 4.728 C 226.976 4.770,226.976 4.767,227.321 4.593 C 227.708 4.398,225.922 4.501,225.392 4.704 C 224.849 4.913,224.723 5.996,224.796 9.818 C 224.890 14.709,225.184 15.460,227.060 15.586 L 227.678 15.628 227.653 17.103 C 227.622 18.839,227.697 18.921,229.317 18.921 L 230.364 18.921 230.475 20.102 C 230.631 21.780,230.074 21.664,237.896 21.651 C 247.110 21.637,247.074 21.646,247.639 19.077 C 247.727 18.677,247.857 18.598,248.598 18.500 C 249.641 18.362,250.196 17.839,250.331 16.869 C 250.383 16.490,250.503 16.020,250.597 15.823 C 250.868 15.257,250.720 2.245,250.439 1.906 C 250.300 1.739,249.746 1.590,248.980 1.515 L 247.745 1.393 247.745 0.697 L 247.745 0.000 246.960 0.000 L 246.174 0.000 246.106 0.752 L 246.039 1.503 246.008 0.752 C 245.961 -0.394,244.739 -0.436,244.739 0.707 C 244.739 1.096,244.660 1.415,244.562 1.415 C 244.465 1.415,244.385 1.096,244.385 0.707 L 244.385 0.000 236.057 0.000 L 227.729 0.000 227.790 0.868 M227.289 10.752 C 227.559 11.050,227.550 11.070,227.147 11.070 C 226.845 11.070,226.767 11.010,226.885 10.868 C 226.977 10.757,227.000 10.614,226.936 10.550 C 226.872 10.486,226.861 10.433,226.910 10.433 C 226.960 10.433,227.131 10.576,227.289 10.752 M161.504 27.768 C 161.066 27.941,160.843 28.765,160.945 29.837 C 161.015 30.572,161.002 30.579,159.399 30.579 C 158.442 30.579,158.199 30.906,158.090 32.341 C 158.015 33.335,157.950 33.515,157.648 33.561 C 156.681 33.708,155.820 34.164,155.646 34.623 C 155.324 35.470,155.211 36.480,155.454 36.330 C 155.592 36.244,155.623 36.270,155.541 36.404 C 155.471 36.517,155.348 36.570,155.268 36.521 C 155.188 36.472,155.135 37.018,155.149 37.735 L 155.175 39.039 154.113 39.155 C 153.528 39.219,152.891 39.288,152.697 39.308 C 152.251 39.355,152.135 46.989,152.573 47.427 C 152.757 47.611,155.624 47.666,166.941 47.704 C 174.956 47.731,181.079 47.819,181.079 47.908 C 181.079 47.993,180.521 48.040,179.839 48.012 C 179.111 47.982,178.553 48.037,178.486 48.146 C 178.416 48.259,178.467 48.281,178.620 48.202 C 178.756 48.131,178.729 48.187,178.559 48.326 C 178.266 48.566,178.100 49.627,178.382 49.453 C 178.455 49.408,178.488 49.706,178.455 50.116 L 178.396 50.861 177.079 50.851 C 175.490 50.838,175.399 50.931,175.463 52.520 L 175.508 53.669 174.309 53.772 C 172.846 53.898,172.727 54.007,172.641 55.299 C 172.530 56.956,172.482 57.065,171.816 57.190 C 171.053 57.334,170.332 58.049,170.190 58.805 C 170.130 59.128,169.975 59.432,169.846 59.482 C 169.675 59.547,169.622 59.953,169.646 60.991 L 169.679 62.410 168.261 62.460 L 166.844 62.511 166.844 63.919 L 166.844 65.327 165.570 65.333 C 164.014 65.342,163.965 65.388,163.817 66.980 L 163.698 68.258 162.939 68.258 C 161.349 68.258,161.072 68.583,161.004 70.531 L 160.965 71.655 160.238 71.980 C 159.173 72.456,158.423 73.783,159.107 73.980 C 159.277 74.029,159.144 74.055,158.812 74.038 C 158.096 73.999,157.841 74.600,157.943 76.076 L 158.002 76.923 156.741 76.923 C 155.182 76.923,155.087 77.024,155.165 78.609 L 155.225 79.842 153.991 79.841 C 152.433 79.841,152.213 80.069,152.290 81.608 L 152.343 82.669 151.370 82.782 C 149.738 82.972,149.306 83.488,149.457 85.069 C 149.493 85.452,149.451 85.765,149.363 85.765 C 149.275 85.765,149.255 86.089,149.318 86.485 C 149.388 86.919,149.368 87.165,149.268 87.103 C 149.055 86.971,148.061 87.802,147.927 88.224 C 147.851 88.464,147.659 88.540,147.166 88.526 L 146.508 88.506 146.517 89.865 C 146.528 91.423,146.535 91.417,144.794 91.421 C 143.588 91.424,143.629 91.371,143.568 93.021 L 143.519 94.341 142.538 94.289 C 141.866 94.253,141.636 94.290,141.808 94.407 C 141.990 94.530,141.893 94.569,141.454 94.548 C 140.883 94.520,140.849 94.550,140.851 95.093 C 140.851 95.409,140.784 95.668,140.701 95.668 C 140.618 95.668,140.577 96.051,140.611 96.519 C 140.666 97.290,140.638 97.364,140.318 97.305 C 139.624 97.178,138.587 97.525,138.229 98.005 C 137.856 98.504,137.622 104.893,137.956 105.434 C 138.163 105.769,197.662 105.856,198.118 105.522 C 198.339 105.361,198.466 104.933,198.552 104.062 L 198.674 102.829 199.683 102.739 C 201.075 102.615,201.384 102.119,201.407 99.975 C 201.414 99.326,201.470 99.229,201.901 99.122 C 202.551 98.962,203.317 98.209,203.451 97.599 C 203.524 97.268,203.688 97.086,203.946 97.049 C 204.299 96.999,204.337 96.878,204.384 95.643 L 204.435 94.293 205.577 94.220 C 206.205 94.180,206.818 94.048,206.940 93.926 C 207.250 93.616,207.252 89.055,206.943 88.746 C 206.771 88.575,202.970 88.528,189.524 88.533 C 180.065 88.536,172.919 88.507,173.644 88.469 C 175.330 88.381,175.420 88.298,175.420 86.825 L 175.420 85.629 176.569 85.556 C 178.003 85.465,178.098 85.366,178.206 83.846 L 178.295 82.609 179.201 82.494 C 179.699 82.431,180.243 82.341,180.410 82.294 C 180.776 82.190,181.076 81.200,181.078 80.090 C 181.079 79.292,181.091 79.274,181.807 79.060 C 182.695 78.794,183.303 78.172,183.452 77.376 C 183.514 77.049,183.681 76.735,183.824 76.680 C 184.022 76.605,184.085 76.258,184.085 75.249 L 184.085 73.917 185.158 73.917 C 186.769 73.917,186.914 73.787,186.914 72.343 L 186.914 71.136 188.083 71.042 C 189.556 70.924,189.757 70.725,189.874 69.265 L 189.966 68.112 190.607 68.002 C 192.083 67.749,192.186 67.704,192.370 67.231 C 192.472 66.969,192.607 66.068,192.672 65.227 C 192.772 63.907,192.840 63.672,193.171 63.495 C 193.382 63.382,193.709 63.059,193.899 62.776 C 194.153 62.399,194.410 62.248,194.868 62.210 L 195.491 62.157 195.542 60.787 L 195.594 59.416 196.812 59.416 C 198.394 59.416,198.585 59.234,198.585 57.724 L 198.585 56.587 199.355 56.587 C 201.052 56.587,201.408 56.231,201.412 54.530 C 201.415 53.547,201.570 53.412,202.708 53.406 C 203.815 53.401,204.113 52.881,204.349 50.537 C 204.494 49.092,205.499 47.816,206.572 47.713 L 207.162 47.657 207.213 46.286 L 207.265 44.916 208.330 44.916 C 209.934 44.916,210.080 44.785,210.080 43.342 L 210.080 42.135 211.248 42.041 C 212.717 41.923,212.903 41.735,213.054 40.211 L 213.174 38.992 214.124 38.876 C 215.354 38.726,215.558 38.494,215.747 37.026 C 216.034 34.796,215.958 28.185,215.641 27.868 C 215.330 27.557,162.283 27.459,161.504 27.768 M225.251 27.716 C 224.803 27.820,224.757 28.132,224.686 31.516 L 224.621 34.618 223.852 35.390 C 223.428 35.815,222.843 36.242,222.551 36.340 C 221.534 36.678,221.380 39.942,222.370 40.189 C 222.702 40.272,222.700 40.279,222.342 40.298 C 221.705 40.332,221.492 46.659,222.115 47.044 C 222.265 47.138,222.256 47.194,222.080 47.253 C 221.887 47.318,221.843 47.975,221.859 50.527 L 221.880 53.720 220.752 53.791 C 218.869 53.911,219.010 53.164,219.010 63.031 C 219.010 67.735,218.960 71.504,218.899 71.405 C 218.725 71.123,217.365 71.428,216.861 71.861 C 216.110 72.507,215.950 74.698,216.003 83.554 C 216.029 87.737,216.039 91.676,216.026 92.308 C 215.950 96.161,216.072 101.171,216.255 101.728 C 216.493 102.448,216.697 102.562,218.029 102.717 L 218.994 102.829 219.270 103.782 C 219.794 105.598,220.447 105.738,228.403 105.742 C 234.653 105.746,235.744 105.651,235.999 105.082 C 236.267 104.483,236.313 93.015,236.047 93.012 C 235.872 93.010,235.864 92.974,236.019 92.876 C 236.135 92.802,236.255 92.318,236.285 91.800 C 236.339 90.875,236.352 90.854,237.047 90.617 C 237.835 90.348,238.326 89.844,238.480 89.147 C 238.537 88.891,238.695 88.432,238.832 88.125 C 239.034 87.672,239.080 86.028,239.080 79.343 L 239.080 71.119 239.832 71.005 C 242.162 70.653,241.978 71.435,242.050 61.583 L 242.109 53.404 242.634 53.404 C 243.369 53.404,244.332 52.968,244.453 52.580 C 245.065 50.618,245.139 37.612,244.548 35.848 C 244.098 34.504,243.635 33.978,242.784 33.842 L 242.135 33.738 242.035 32.563 C 241.867 30.587,241.864 30.584,239.443 30.507 L 237.899 30.458 237.098 29.678 C 236.628 29.222,236.244 28.663,236.171 28.331 C 236.102 28.019,236.033 27.752,236.016 27.738 C 235.940 27.676,225.518 27.654,225.251 27.716 M274.934 27.724 C 274.336 27.801,274.037 28.317,274.130 29.109 C 274.168 29.439,274.127 29.708,274.038 29.708 C 273.949 29.708,273.910 29.887,273.952 30.106 C 274.025 30.492,273.988 30.503,272.690 30.477 C 268.938 30.400,268.260 30.629,268.256 31.975 C 268.251 33.529,268.229 33.552,266.746 33.505 C 265.240 33.458,265.281 33.410,265.317 35.190 L 265.340 36.340 263.926 36.340 L 262.511 36.340 262.423 37.754 L 262.334 39.169 261.023 39.206 C 259.447 39.251,259.405 39.300,259.506 40.974 L 259.583 42.249 258.462 42.145 C 256.704 41.980,256.634 42.105,256.657 45.377 L 256.676 48.011 255.263 48.011 L 253.851 48.011 253.709 48.895 C 253.631 49.381,253.616 50.590,253.674 51.582 C 253.790 53.561,253.644 54.111,253.000 54.112 C 251.920 54.114,251.108 55.223,251.038 56.791 C 251.026 57.049,250.974 57.233,250.921 57.201 C 250.696 57.063,250.836 82.030,251.062 82.255 C 251.183 82.377,251.800 82.510,252.432 82.550 L 253.581 82.623 253.615 83.266 C 253.634 83.619,253.656 84.823,253.663 85.942 C 253.673 87.526,253.744 88.093,253.981 88.506 C 254.149 88.798,254.287 89.130,254.287 89.244 C 254.289 89.656,255.195 90.516,255.752 90.635 C 256.650 90.827,256.792 91.024,256.662 91.892 C 256.399 93.647,256.673 94.016,258.364 94.193 L 259.375 94.299 259.496 95.523 C 259.635 96.939,259.815 97.082,261.448 97.082 C 262.492 97.082,262.364 96.921,262.699 98.662 C 262.858 99.489,264.764 100.161,266.734 100.084 C 268.352 100.021,268.386 100.034,268.517 100.752 C 268.754 102.051,269.034 102.253,271.264 102.732 C 272.688 103.038,296.442 102.922,296.756 102.608 C 296.877 102.486,297.010 101.869,297.050 101.237 L 297.123 100.088 298.650 100.089 L 300.177 100.089 300.192 101.485 L 300.207 102.881 299.573 102.986 C 299.224 103.044,298.682 103.092,298.368 103.093 C 297.414 103.096,297.251 103.560,297.208 106.390 L 297.171 108.842 295.933 108.827 C 294.350 108.809,294.312 108.845,294.328 110.385 L 294.341 111.671 291.746 111.683 C 288.935 111.696,288.498 111.823,288.643 112.583 C 288.686 112.812,288.647 112.941,288.551 112.882 C 288.449 112.819,288.407 113.154,288.444 113.728 L 288.506 114.677 283.466 114.666 C 280.694 114.659,278.048 114.639,277.586 114.621 L 276.746 114.589 276.746 113.473 C 276.746 111.734,276.719 111.717,273.748 111.655 C 270.792 111.593,271.086 111.746,271.014 110.234 C 270.871 107.242,270.184 106.101,268.529 106.101 C 268.091 106.101,268.081 106.072,268.079 104.819 C 268.074 102.832,268.769 102.998,260.706 103.065 C 256.263 103.102,253.632 103.189,253.563 103.301 C 253.501 103.401,253.405 103.351,253.341 103.184 C 253.242 102.928,252.929 102.895,250.884 102.931 C 247.690 102.985,247.922 102.867,247.922 104.437 C 247.922 105.865,247.734 106.101,246.594 106.101 C 245.740 106.101,245.264 106.773,245.153 108.134 C 244.965 110.440,245.564 111.406,247.183 111.406 L 247.692 111.406 247.807 113.025 C 247.870 113.915,247.922 115.223,247.922 115.932 C 247.922 116.641,247.991 117.263,248.076 117.315 C 248.160 117.368,248.279 117.721,248.340 118.100 C 248.493 119.061,248.945 119.540,249.932 119.791 L 250.778 120.006 250.809 121.270 C 250.848 122.861,251.021 123.049,252.574 123.194 L 253.758 123.305 253.758 124.407 C 253.758 125.792,253.919 125.936,255.602 126.044 L 256.903 126.127 257.014 126.825 C 257.155 127.703,257.765 128.323,258.645 128.481 C 259.021 128.548,259.458 128.717,259.617 128.855 C 259.840 129.050,260.465 129.102,262.358 129.085 C 263.707 129.073,264.929 129.069,265.075 129.076 C 265.282 129.086,265.340 129.340,265.340 130.230 C 265.340 130.929,265.429 131.459,265.570 131.600 C 265.870 131.900,279.222 132.048,279.222 131.752 C 279.222 131.649,279.421 131.565,279.664 131.565 C 279.907 131.565,280.106 131.645,280.106 131.742 C 280.106 131.852,281.167 131.919,282.935 131.919 C 284.704 131.919,285.765 131.852,285.765 131.742 C 285.765 131.645,285.924 131.565,286.118 131.565 C 286.313 131.565,286.472 131.648,286.472 131.750 C 286.472 131.876,288.526 131.918,292.942 131.882 L 299.413 131.830 299.765 131.395 C 300.040 131.056,300.104 130.755,300.058 130.025 C 300.003 129.131,300.020 129.088,300.442 129.080 C 300.685 129.075,301.940 129.079,303.230 129.089 C 305.194 129.104,305.592 129.062,305.680 128.833 C 305.738 128.682,305.979 128.559,306.217 128.559 C 307.214 128.559,307.982 127.845,308.216 126.702 C 308.323 126.179,308.343 126.170,309.688 126.074 C 311.341 125.957,311.420 125.886,311.536 124.439 L 311.628 123.292 312.736 123.222 C 314.249 123.125,314.412 122.954,314.412 121.464 L 314.412 120.248 315.009 120.248 C 317.132 120.248,317.393 119.754,317.413 115.694 L 317.418 114.589 318.188 114.589 C 320.239 114.589,320.242 114.581,320.245 109.618 L 320.248 105.796 321.332 105.698 C 322.598 105.583,322.888 105.354,323.089 104.306 C 323.329 103.051,323.271 92.630,323.022 92.328 C 322.859 92.130,322.861 92.057,323.033 91.999 C 323.189 91.946,323.254 91.420,323.254 90.192 L 323.254 88.459 324.392 88.337 C 325.018 88.270,325.623 88.104,325.735 87.969 C 326.062 87.574,326.194 84.175,325.889 83.982 C 325.703 83.864,325.698 83.824,325.869 83.822 C 326.047 83.820,326.093 83.080,326.083 80.416 C 326.075 78.543,326.072 75.599,326.076 73.873 L 326.083 70.734 326.619 70.734 C 327.599 70.734,328.321 70.302,328.584 69.557 C 328.958 68.497,328.935 51.165,328.559 50.868 C 328.413 50.753,328.134 50.341,327.940 49.953 C 327.697 49.469,327.357 49.138,326.853 48.895 L 326.120 48.541 326.057 45.565 C 325.983 42.032,325.961 41.989,324.271 42.157 L 323.254 42.258 323.254 40.991 C 323.254 40.295,323.174 39.480,323.077 39.181 C 322.980 38.883,322.818 38.301,322.717 37.888 C 322.520 37.081,322.097 36.755,320.972 36.541 C 320.192 36.392,319.894 36.133,319.894 35.602 C 319.894 34.161,318.535 33.471,315.782 33.515 L 314.412 33.537 314.412 32.263 C 314.412 30.529,314.405 30.525,311.394 30.482 C 308.495 30.440,308.642 30.504,308.538 29.243 C 308.440 28.069,308.210 27.835,307.016 27.697 C 306.125 27.595,275.741 27.620,274.934 27.724 M340.928 27.769 C 340.808 27.843,340.758 28.032,340.817 28.187 C 340.877 28.343,340.838 28.470,340.730 28.470 C 340.598 28.470,340.566 28.815,340.631 29.531 L 340.727 30.592 339.815 30.595 C 337.699 30.600,337.771 30.289,337.832 39.080 C 337.859 42.922,337.842 46.477,337.795 46.980 L 337.709 47.895 336.803 48.018 C 334.823 48.285,334.877 48.005,334.855 58.163 C 334.845 62.677,334.809 66.229,334.776 66.057 C 334.615 65.234,332.752 66.382,332.526 67.443 C 332.461 67.745,332.318 68.105,332.208 68.241 C 332.004 68.493,331.838 92.354,332.033 93.408 C 332.132 93.945,332.874 94.250,334.085 94.252 C 334.841 94.253,334.761 93.899,334.814 97.477 C 334.849 99.804,334.949 99.951,336.582 100.055 L 337.713 100.127 337.810 100.852 C 337.864 101.251,337.863 101.798,337.809 102.067 C 337.672 102.752,339.323 103.338,339.582 102.697 C 339.654 102.520,339.674 102.520,339.685 102.697 C 339.693 102.818,339.898 102.918,340.141 102.918 C 340.515 102.918,340.584 103.000,340.584 103.448 C 340.584 103.740,340.643 103.979,340.716 103.979 C 340.789 103.979,340.849 104.274,340.849 104.635 C 340.849 105.606,341.251 105.741,344.150 105.745 C 345.920 105.746,346.590 105.688,346.656 105.526 C 346.727 105.349,346.748 105.349,346.759 105.526 C 346.769 105.683,347.181 105.747,348.187 105.747 L 349.602 105.747 349.602 106.283 C 349.602 108.288,351.077 108.761,357.278 108.746 C 362.609 108.732,363.568 108.481,363.574 107.098 C 363.576 106.793,363.625 106.364,363.683 106.146 L 363.790 105.749 378.225 105.704 L 392.661 105.659 392.710 102.886 L 392.759 100.113 393.733 99.991 C 394.269 99.924,394.884 99.727,395.099 99.552 L 395.491 99.236 395.540 90.820 L 395.589 82.405 396.336 82.402 C 398.450 82.395,398.467 82.321,398.546 72.635 L 398.611 64.721 399.306 64.721 L 400.000 64.721 400.000 62.140 L 400.000 59.558 399.221 59.620 C 398.793 59.654,398.479 59.622,398.524 59.549 C 398.569 59.476,398.920 59.416,399.303 59.416 C 400.417 59.416,400.367 58.409,399.248 58.308 L 398.497 58.240 399.248 58.209 L 400.000 58.179 400.000 45.004 L 400.000 31.830 399.293 31.830 C 398.626 31.830,398.585 31.800,398.585 31.306 C 398.585 30.659,398.072 30.340,397.273 30.490 C 395.980 30.732,395.627 30.496,395.543 29.331 C 395.418 27.607,395.668 27.679,389.737 27.647 C 386.752 27.630,384.655 27.685,384.713 27.777 C 384.766 27.864,384.673 27.883,384.505 27.819 C 384.269 27.728,384.227 27.770,384.317 28.007 C 384.393 28.203,384.366 28.270,384.243 28.194 C 384.109 28.111,384.089 28.417,384.175 29.219 L 384.297 30.361 383.011 30.469 C 381.150 30.625,381.292 30.002,381.225 38.321 C 381.193 42.329,381.141 45.532,381.108 45.439 C 381.023 45.194,380.452 45.231,379.740 45.529 C 378.988 45.843,378.609 46.637,378.553 48.016 C 378.532 48.546,378.468 48.981,378.412 48.982 C 378.355 48.983,378.316 52.664,378.323 57.162 L 378.338 65.340 377.217 65.362 C 375.423 65.398,375.513 65.087,375.480 71.360 C 375.464 74.323,375.513 76.710,375.589 76.663 C 375.664 76.616,375.654 76.954,375.566 77.414 C 375.478 77.873,375.425 78.607,375.449 79.045 L 375.491 79.841 374.525 79.785 C 372.870 79.690,372.591 79.894,372.588 81.207 C 372.585 82.830,372.479 83.081,371.714 83.287 C 370.897 83.507,370.503 83.929,370.219 84.891 L 369.999 85.637 368.651 85.657 C 366.974 85.681,366.849 85.795,366.826 87.318 L 366.809 88.500 362.361 88.503 L 357.913 88.506 357.913 87.245 C 357.913 85.755,357.715 85.486,356.751 85.667 C 356.401 85.733,355.883 85.735,355.600 85.673 L 355.084 85.560 355.084 75.423 L 355.084 65.287 356.133 65.165 C 357.976 64.951,357.818 65.765,357.876 56.181 L 357.926 47.790 358.937 47.674 C 360.148 47.536,360.309 47.447,360.561 46.785 C 360.878 45.952,361.001 41.460,360.754 39.773 C 360.365 37.122,360.161 36.819,358.576 36.532 L 357.913 36.412 357.913 34.906 C 357.913 34.051,357.844 33.444,357.753 33.500 C 357.665 33.554,357.631 33.452,357.678 33.271 C 358.098 31.668,356.748 30.653,354.023 30.519 C 352.154 30.428,352.313 30.526,352.183 29.380 C 351.978 27.569,352.344 27.678,346.362 27.654 C 343.494 27.642,341.049 27.694,340.928 27.769 M277.774 29.045 C 277.733 29.343,277.802 29.436,278.050 29.415 C 278.345 29.390,278.352 29.416,278.116 29.652 C 277.679 30.089,277.016 29.452,277.431 28.994 C 277.812 28.574,277.839 28.578,277.774 29.045 M277.358 30.018 C 277.448 30.252,277.422 30.256,277.163 30.043 C 276.890 29.817,276.884 29.832,277.089 30.216 C 277.211 30.446,277.230 30.584,277.130 30.522 C 277.030 30.460,276.902 30.484,276.846 30.574 C 276.694 30.820,276.129 30.684,276.116 30.399 C 276.090 29.801,277.150 29.476,277.358 30.018 M276.379 29.929 C 276.228 30.424,276.268 30.592,276.493 30.405 C 276.630 30.292,276.699 30.128,276.645 30.042 C 276.554 29.894,276.409 29.832,276.379 29.929 M161.067 32.584 C 161.034 32.626,161.114 32.788,161.244 32.945 C 161.520 33.277,161.350 33.666,160.990 33.528 C 160.838 33.469,160.742 33.550,160.740 33.737 C 160.738 33.993,160.712 34.000,160.572 33.780 C 160.464 33.608,160.480 33.474,160.619 33.385 C 160.828 33.252,160.646 33.169,160.301 33.239 C 160.203 33.258,160.316 33.069,160.552 32.818 C 160.891 32.457,161.315 32.264,161.067 32.584 M160.762 32.779 C 160.609 32.963,160.626 33.075,160.833 33.247 C 161.170 33.526,161.397 33.342,161.123 33.012 C 161.013 32.879,160.975 32.718,161.039 32.654 C 161.103 32.590,161.112 32.538,161.059 32.538 C 161.006 32.538,160.873 32.646,160.762 32.779 M271.009 32.862 C 270.987 33.008,270.845 33.145,270.693 33.168 C 270.483 33.199,270.374 32.795,270.543 32.611 C 270.672 32.471,271.037 32.667,271.009 32.862 M159.956 33.583 C 159.901 33.672,159.937 33.772,160.036 33.805 C 160.135 33.838,160.036 33.974,159.816 34.106 C 159.552 34.266,159.487 34.273,159.624 34.128 C 159.738 34.008,159.789 33.799,159.737 33.665 C 159.686 33.531,159.737 33.422,159.850 33.422 C 159.963 33.422,160.011 33.495,159.956 33.583 M358.246 40.805 C 358.235 40.878,358.241 40.977,358.260 41.026 C 358.456 41.529,358.391 41.703,358.080 41.509 C 357.841 41.359,357.809 41.266,357.965 41.167 C 358.082 41.092,358.114 41.030,358.036 41.028 C 357.957 41.027,357.942 40.946,358.002 40.849 C 358.130 40.641,358.276 40.615,358.246 40.805 M294.618 45.652 C 294.856 47.122,296.114 47.745,298.843 47.745 L 300.088 47.745 300.088 48.515 C 300.088 50.089,300.475 50.563,301.768 50.575 C 302.948 50.585,303.034 50.675,302.953 51.805 C 302.849 53.233,303.197 53.581,304.730 53.581 L 305.836 53.581 305.822 61.494 L 305.808 69.408 305.056 70.153 C 304.642 70.563,304.354 70.979,304.415 71.078 C 304.487 71.194,304.334 71.220,303.988 71.151 C 303.074 70.969,302.962 71.220,302.992 73.379 C 303.018 75.245,303.004 75.320,302.600 75.537 C 302.369 75.660,302.023 75.983,301.830 76.253 C 301.592 76.587,301.265 76.780,300.813 76.852 L 300.147 76.959 300.165 78.428 L 300.184 79.898 298.766 79.847 C 297.236 79.792,297.047 79.887,297.197 80.638 C 297.261 80.956,297.189 81.175,296.965 81.345 C 296.687 81.557,296.672 81.557,296.861 81.344 C 297.080 81.099,297.171 80.460,296.987 80.460 C 296.268 80.460,294.744 82.087,295.029 82.550 C 295.069 82.616,294.056 82.681,292.777 82.695 C 289.093 82.735,288.468 83.069,288.620 84.917 L 288.683 85.676 287.093 85.619 C 285.352 85.555,285.241 85.488,285.237 84.502 C 285.232 83.202,284.552 82.867,281.494 82.653 L 279.787 82.534 279.681 82.005 C 279.623 81.714,279.576 81.296,279.576 81.076 C 279.576 80.321,279.050 79.936,277.851 79.814 L 276.746 79.702 276.746 78.525 C 276.746 77.046,276.622 76.923,275.119 76.923 L 273.917 76.923 273.917 68.190 L 273.917 59.456 275.165 59.386 C 276.762 59.296,276.740 59.340,276.744 56.189 L 276.746 53.581 277.971 53.581 C 279.562 53.581,279.752 53.400,279.752 51.888 L 279.752 50.752 280.813 50.752 C 282.283 50.752,282.582 50.438,282.582 48.895 L 282.582 47.745 284.836 47.728 C 288.106 47.702,288.092 47.710,288.335 45.752 L 288.440 44.908 291.476 44.956 L 294.512 45.004 294.618 45.652 M380.945 49.309 C 380.849 49.565,380.874 49.571,381.138 49.356 C 381.396 49.146,381.425 49.146,381.336 49.356 C 381.121 49.861,380.185 50.459,379.961 50.234 C 379.800 50.071,379.818 50.048,380.040 50.133 C 380.250 50.212,380.321 50.145,380.305 49.882 C 380.293 49.684,380.354 49.527,380.440 49.533 C 380.787 49.557,380.874 49.068,380.583 48.722 C 380.286 48.368,380.287 48.368,380.669 48.690 C 380.910 48.894,381.014 49.127,380.945 49.309 M355.845 61.798 C 355.534 62.072,355.444 62.237,355.604 62.240 C 355.788 62.244,355.763 62.318,355.516 62.505 C 355.080 62.835,354.842 62.847,354.963 62.533 C 355.014 62.399,354.963 62.184,354.849 62.055 C 354.680 61.864,354.694 61.860,354.923 62.031 C 355.152 62.203,355.279 62.160,355.617 61.802 C 355.844 61.560,356.100 61.362,356.186 61.362 C 356.271 61.362,356.118 61.558,355.845 61.798 M355.680 62.978 C 355.521 63.154,355.318 63.253,355.229 63.198 C 355.008 63.062,355.362 62.658,355.701 62.658 C 355.934 62.658,355.931 62.701,355.680 62.978 M168.462 63.918 C 168.405 64.068,168.176 64.186,167.954 64.180 L 167.551 64.169 167.949 64.009 C 168.168 63.921,168.347 63.753,168.347 63.637 C 168.347 63.520,168.396 63.474,168.457 63.535 C 168.518 63.596,168.520 63.768,168.462 63.918 M378.957 67.597 C 379.179 67.536,379.182 67.552,378.973 67.698 C 378.836 67.794,378.622 67.833,378.497 67.785 C 378.259 67.693,378.286 68.581,378.535 69.014 C 378.604 69.133,378.595 69.172,378.515 69.100 C 378.435 69.028,378.251 69.067,378.105 69.188 C 377.870 69.382,377.868 69.361,378.088 69.004 C 378.304 68.655,378.303 68.579,378.078 68.440 C 377.796 68.264,377.304 68.547,377.458 68.797 C 377.609 69.041,377.171 69.195,376.952 68.975 C 376.795 68.817,376.817 68.794,377.042 68.880 C 377.260 68.963,377.324 68.908,377.284 68.670 C 377.204 68.192,378.276 67.107,378.512 67.427 C 378.611 67.561,378.811 67.637,378.957 67.597 M377.796 67.942 C 377.510 68.254,377.396 68.420,377.542 68.311 C 377.688 68.201,377.887 68.105,377.984 68.096 C 378.081 68.088,378.162 68.022,378.164 67.949 C 378.165 67.876,378.229 67.717,378.307 67.595 C 378.554 67.206,378.331 67.357,377.796 67.942 M160.316 73.116 C 159.870 73.549,159.505 73.833,159.505 73.747 C 159.505 73.661,159.823 73.318,160.212 72.985 C 160.601 72.652,160.926 72.268,160.934 72.132 C 160.944 71.950,160.972 71.943,161.037 72.105 C 161.086 72.228,160.762 72.682,160.316 73.116 M277.958 82.773 C 278.143 82.781,278.169 82.819,278.027 82.876 C 277.905 82.925,277.852 83.058,277.910 83.172 C 277.968 83.285,277.850 83.179,277.650 82.935 C 277.448 82.691,277.283 82.598,277.281 82.727 C 277.279 82.856,277.137 82.934,276.967 82.901 C 276.741 82.857,276.674 82.705,276.717 82.338 C 276.756 82.012,276.710 81.876,276.587 81.952 C 276.471 82.024,276.436 81.966,276.498 81.806 C 276.575 81.605,276.726 81.687,277.133 82.150 C 277.427 82.485,277.798 82.765,277.958 82.773 M369.172 87.435 C 369.172 87.575,369.086 87.675,368.980 87.656 C 368.875 87.637,368.804 87.708,368.823 87.813 C 368.842 87.919,368.741 88.005,368.599 88.005 C 368.409 88.005,368.443 87.895,368.728 87.592 C 369.185 87.105,369.172 87.110,369.172 87.435 M369.709 87.645 C 369.647 87.706,369.682 87.915,369.785 88.108 C 369.921 88.362,369.919 88.426,369.779 88.340 C 369.672 88.274,369.584 88.295,369.584 88.386 C 369.584 88.581,368.945 88.780,368.796 88.631 C 368.700 88.535,369.557 87.533,369.735 87.533 C 369.782 87.533,369.770 87.583,369.709 87.645 M393.912 96.627 C 393.912 96.960,393.861 97.202,393.800 97.164 C 393.615 97.049,392.734 98.068,392.880 98.228 C 392.954 98.310,392.914 98.319,392.791 98.248 C 392.668 98.177,392.626 98.025,392.697 97.910 C 392.769 97.795,392.838 97.508,392.852 97.272 C 392.870 96.944,393.622 96.021,393.871 96.021 C 393.894 96.021,393.912 96.294,393.912 96.627 M143.590 96.314 C 143.590 96.378,142.701 97.259,142.636 97.259 C 142.591 97.259,142.641 96.301,142.688 96.278 C 142.754 96.244,143.590 96.278,143.590 96.314 M393.251 96.773 C 392.877 97.453,392.922 97.678,393.352 97.275 C 393.741 96.909,393.895 96.375,393.611 96.375 C 393.533 96.375,393.371 96.554,393.251 96.773 M272.169 100.138 C 272.094 100.214,271.839 100.200,271.604 100.107 C 271.202 99.948,271.211 99.940,271.741 99.969 C 272.052 99.986,272.245 100.062,272.169 100.138 M294.212 100.608 C 293.991 100.880,293.777 101.073,293.736 101.037 C 293.696 101.001,293.835 100.787,294.047 100.561 C 294.259 100.335,294.373 100.084,294.299 100.003 C 294.225 99.921,294.265 99.913,294.389 99.984 C 294.558 100.081,294.514 100.235,294.212 100.608 M295.199 100.535 C 295.142 100.684,294.926 100.894,294.718 101.002 C 294.371 101.182,294.376 101.160,294.770 100.731 C 295.263 100.195,295.344 100.158,295.199 100.535 M321.441 102.048 C 321.271 102.147,321.132 102.313,321.132 102.418 C 321.132 102.533,321.254 102.512,321.441 102.365 C 321.720 102.146,321.727 102.152,321.514 102.424 C 321.384 102.590,321.338 102.828,321.410 102.954 C 321.483 103.080,321.475 103.122,321.393 103.048 C 321.312 102.974,321.039 103.110,320.788 103.350 L 320.332 103.788 320.310 103.253 C 320.294 102.865,320.355 102.744,320.533 102.813 C 320.668 102.864,320.778 102.816,320.778 102.705 C 320.778 102.436,321.314 101.855,321.557 101.862 C 321.664 101.865,321.611 101.949,321.441 102.048 M320.890 102.833 C 320.830 102.989,320.714 103.076,320.632 103.025 C 320.550 102.975,320.483 103.054,320.483 103.201 C 320.483 103.409,320.562 103.389,320.842 103.109 C 321.039 102.912,321.155 102.705,321.100 102.650 C 321.044 102.594,320.950 102.677,320.890 102.833 M344.248 103.592 C 344.094 103.781,344.030 103.773,343.903 103.546 C 343.686 103.159,343.901 102.865,344.200 103.141 C 344.373 103.300,344.386 103.423,344.248 103.592 M344.385 104.549 C 344.483 104.621,344.386 104.682,344.170 104.683 C 343.889 104.685,343.807 104.609,343.882 104.413 C 343.940 104.263,344.037 104.203,344.098 104.279 C 344.159 104.355,344.288 104.476,344.385 104.549 M358.798 105.846 C 358.798 105.998,358.718 106.072,358.621 106.012 C 358.523 105.952,358.435 106.087,358.423 106.311 C 358.406 106.650,358.388 106.662,358.317 106.385 C 358.250 106.123,358.199 106.102,358.083 106.289 C 357.961 106.487,357.833 106.475,357.349 106.223 L 356.764 105.917 357.391 106.010 C 357.798 106.071,358.141 106.011,358.364 105.842 C 358.798 105.514,358.798 105.514,358.798 105.846 M356.293 106.079 C 356.473 106.193,356.443 106.251,356.166 106.323 C 355.966 106.376,355.713 106.308,355.599 106.171 C 355.362 105.884,355.878 105.816,356.293 106.079 M356.899 107.640 C 356.681 107.682,356.284 107.683,356.015 107.642 C 355.746 107.602,355.924 107.567,356.410 107.566 C 356.897 107.565,357.116 107.598,356.899 107.640 M357.869 107.991 C 357.699 108.036,357.420 108.036,357.250 107.991 C 357.080 107.947,357.219 107.910,357.560 107.910 C 357.900 107.910,358.039 107.947,357.869 107.991 M291.314 113.785 C 291.262 113.920,291.101 114.076,290.957 114.132 C 290.812 114.187,290.740 114.307,290.796 114.399 C 290.853 114.490,290.818 114.614,290.719 114.675 C 290.392 114.878,290.533 114.296,290.889 113.974 C 291.081 113.800,291.188 113.576,291.127 113.477 C 291.064 113.376,291.102 113.350,291.212 113.418 C 291.320 113.485,291.366 113.650,291.314 113.785 M253.636 120.893 C 253.941 121.061,253.942 121.082,253.647 121.322 C 253.476 121.460,253.389 121.485,253.454 121.376 C 253.519 121.268,253.415 121.037,253.223 120.863 C 253.031 120.689,252.876 120.459,252.879 120.353 C 252.882 120.246,252.982 120.284,253.100 120.437 C 253.219 120.590,253.460 120.795,253.636 120.893 " stroke="none" fill="#545454" fill-rule="evenodd"></path><path id="path2" d="M244.385 0.707 C 244.385 1.096,244.465 1.415,244.562 1.415 C 244.660 1.415,244.739 1.096,244.739 0.707 C 244.739 0.318,244.660 0.000,244.562 0.000 C 244.465 0.000,244.385 0.318,244.385 0.707 M246.025 0.707 C 246.025 1.145,246.060 1.324,246.102 1.105 C 246.144 0.886,246.144 0.528,246.102 0.309 C 246.060 0.091,246.025 0.270,246.025 0.707 M226.936 10.550 C 227.000 10.614,226.977 10.757,226.885 10.868 C 226.767 11.010,226.845 11.070,227.147 11.070 C 227.550 11.070,227.559 11.050,227.289 10.752 C 227.131 10.576,226.960 10.433,226.910 10.433 C 226.861 10.433,226.872 10.486,226.936 10.550 M279.797 27.708 C 279.967 27.753,280.245 27.753,280.416 27.708 C 280.586 27.664,280.447 27.627,280.106 27.627 C 279.766 27.627,279.626 27.664,279.797 27.708 M282.894 27.714 C 283.212 27.754,283.690 27.753,283.955 27.713 C 284.221 27.672,283.961 27.640,283.378 27.641 C 282.794 27.642,282.577 27.675,282.894 27.714 M297.480 27.713 C 297.748 27.753,298.185 27.753,298.453 27.713 C 298.720 27.672,298.501 27.639,297.966 27.639 C 297.431 27.639,297.213 27.672,297.480 27.713 M301.461 27.711 C 301.681 27.754,301.999 27.752,302.168 27.708 C 302.337 27.663,302.157 27.629,301.768 27.631 C 301.379 27.633,301.241 27.669,301.461 27.711 M277.431 28.994 C 277.016 29.452,277.679 30.089,278.116 29.652 C 278.352 29.416,278.345 29.390,278.050 29.415 C 277.802 29.436,277.733 29.343,277.774 29.045 C 277.839 28.578,277.812 28.574,277.431 28.994 M276.234 29.973 C 276.012 30.279,276.115 30.645,276.436 30.692 C 276.606 30.717,276.790 30.664,276.846 30.574 C 276.902 30.484,277.030 30.460,277.130 30.522 C 277.230 30.584,277.211 30.446,277.089 30.216 C 276.884 29.832,276.890 29.817,277.163 30.043 C 277.422 30.256,277.448 30.252,277.358 30.018 C 277.243 29.720,276.442 29.688,276.234 29.973 M276.645 30.042 C 276.699 30.128,276.630 30.292,276.493 30.405 C 276.268 30.592,276.228 30.424,276.379 29.929 C 276.409 29.832,276.554 29.894,276.645 30.042 M160.552 32.818 C 160.316 33.069,160.203 33.258,160.301 33.239 C 160.646 33.169,160.828 33.252,160.619 33.385 C 160.480 33.474,160.464 33.608,160.572 33.780 C 160.712 34.000,160.738 33.993,160.740 33.737 C 160.742 33.550,160.838 33.469,160.990 33.528 C 161.350 33.666,161.520 33.277,161.244 32.945 C 161.114 32.788,161.034 32.626,161.067 32.584 C 161.315 32.264,160.891 32.457,160.552 32.818 M161.039 32.654 C 160.975 32.718,161.013 32.879,161.123 33.012 C 161.397 33.342,161.170 33.526,160.833 33.247 C 160.581 33.037,160.740 32.538,161.059 32.538 C 161.112 32.538,161.103 32.590,161.039 32.654 M270.543 32.611 C 270.374 32.795,270.483 33.199,270.693 33.168 C 271.038 33.117,271.138 32.597,270.802 32.597 C 270.667 32.597,270.551 32.603,270.543 32.611 M159.737 33.665 C 159.789 33.799,159.738 34.008,159.624 34.128 C 159.487 34.273,159.552 34.266,159.816 34.106 C 160.036 33.974,160.135 33.838,160.036 33.805 C 159.937 33.772,159.901 33.672,159.956 33.583 C 160.011 33.495,159.963 33.422,159.850 33.422 C 159.737 33.422,159.686 33.531,159.737 33.665 M337.802 38.196 C 337.802 38.634,337.837 38.813,337.879 38.594 C 337.921 38.375,337.921 38.017,337.879 37.798 C 337.837 37.580,337.802 37.759,337.802 38.196 M358.002 40.849 C 357.942 40.946,357.957 41.027,358.036 41.028 C 358.114 41.030,358.082 41.092,357.965 41.167 C 357.809 41.266,357.841 41.359,358.080 41.509 C 358.391 41.703,358.456 41.529,358.260 41.026 C 358.241 40.977,358.235 40.878,358.246 40.805 C 358.276 40.615,358.130 40.641,358.002 40.849 M337.802 42.087 C 337.802 42.524,337.837 42.703,337.879 42.485 C 337.921 42.266,337.921 41.908,337.879 41.689 C 337.837 41.470,337.802 41.649,337.802 42.087 M337.805 45.889 C 337.806 46.375,337.840 46.553,337.881 46.284 C 337.922 46.015,337.921 45.617,337.879 45.400 C 337.837 45.182,337.803 45.402,337.805 45.889 M221.801 47.126 C 221.800 47.710,221.836 47.989,221.881 47.745 C 221.926 47.502,222.055 47.245,222.166 47.173 C 222.318 47.077,222.316 47.043,222.160 47.041 C 222.045 47.039,221.918 46.819,221.877 46.552 C 221.837 46.284,221.803 46.543,221.801 47.126 M380.583 48.722 C 380.874 49.068,380.787 49.557,380.440 49.533 C 380.354 49.527,380.293 49.684,380.305 49.882 C 380.321 50.145,380.250 50.212,380.040 50.133 C 379.818 50.048,379.800 50.071,379.961 50.234 C 380.185 50.459,381.121 49.861,381.336 49.356 C 381.425 49.146,381.396 49.146,381.138 49.356 C 380.874 49.571,380.849 49.565,380.945 49.309 C 381.014 49.127,380.910 48.894,380.669 48.690 C 380.287 48.368,380.286 48.368,380.583 48.722 M221.805 52.785 C 221.806 53.369,221.839 53.586,221.879 53.268 C 221.918 52.950,221.917 52.473,221.877 52.207 C 221.837 51.942,221.804 52.202,221.805 52.785 M398.895 58.303 C 399.114 58.346,399.472 58.346,399.691 58.303 C 399.909 58.261,399.730 58.227,399.293 58.227 C 398.855 58.227,398.676 58.261,398.895 58.303 M398.520 59.556 C 398.472 59.633,398.726 59.667,399.084 59.632 C 400.063 59.535,400.179 59.446,399.347 59.430 C 398.940 59.423,398.567 59.479,398.520 59.556 M378.310 61.096 C 378.311 61.874,378.342 62.171,378.379 61.755 C 378.416 61.339,378.416 60.702,378.378 60.340 C 378.340 59.978,378.309 60.318,378.310 61.096 M218.966 61.450 C 218.968 61.839,219.004 61.977,219.046 61.757 C 219.089 61.537,219.087 61.219,219.043 61.050 C 218.999 60.881,218.964 61.061,218.966 61.450 M355.617 61.802 C 355.279 62.160,355.152 62.203,354.923 62.031 C 354.694 61.860,354.680 61.864,354.849 62.055 C 354.963 62.184,355.014 62.399,354.963 62.533 C 354.842 62.847,355.080 62.835,355.516 62.505 C 355.763 62.318,355.788 62.244,355.604 62.240 C 355.444 62.237,355.534 62.072,355.845 61.798 C 356.118 61.558,356.271 61.362,356.186 61.362 C 356.100 61.362,355.844 61.560,355.617 61.802 M355.249 62.878 C 354.952 63.237,355.360 63.332,355.680 62.978 C 355.931 62.701,355.934 62.658,355.701 62.658 C 355.553 62.658,355.350 62.757,355.249 62.878 M168.347 63.637 C 168.347 63.753,168.168 63.921,167.949 64.009 L 167.551 64.169 167.954 64.180 C 168.345 64.191,168.681 63.759,168.457 63.535 C 168.396 63.474,168.347 63.520,168.347 63.637 M250.817 65.606 C 250.817 66.627,250.846 67.045,250.882 66.534 C 250.918 66.023,250.918 65.188,250.882 64.677 C 250.846 64.167,250.817 64.584,250.817 65.606 M218.969 65.075 C 218.969 65.513,219.004 65.692,219.046 65.473 C 219.088 65.254,219.088 64.896,219.046 64.677 C 219.004 64.458,218.969 64.637,218.969 65.075 M377.781 67.765 C 377.478 68.085,377.254 68.492,377.284 68.670 C 377.324 68.908,377.260 68.963,377.042 68.880 C 376.817 68.794,376.795 68.817,376.952 68.975 C 377.171 69.195,377.609 69.041,377.458 68.797 C 377.304 68.547,377.796 68.264,378.078 68.440 C 378.303 68.579,378.304 68.655,378.088 69.004 C 377.868 69.361,377.870 69.382,378.105 69.188 C 378.251 69.067,378.435 69.028,378.515 69.100 C 378.595 69.172,378.604 69.133,378.535 69.014 C 378.286 68.581,378.259 67.693,378.497 67.785 C 378.622 67.833,378.836 67.794,378.973 67.698 C 379.182 67.552,379.179 67.536,378.957 67.597 C 378.811 67.637,378.611 67.561,378.512 67.427 C 378.367 67.231,378.225 67.296,377.781 67.765 M378.307 67.595 C 378.229 67.717,378.165 67.876,378.164 67.949 C 378.162 68.022,378.081 68.088,377.984 68.096 C 377.887 68.105,377.688 68.201,377.542 68.311 C 377.396 68.420,377.510 68.254,377.796 67.942 C 378.331 67.357,378.554 67.206,378.307 67.595 M218.972 68.700 C 218.973 69.187,219.008 69.365,219.048 69.096 C 219.089 68.827,219.088 68.429,219.046 68.212 C 219.004 67.994,218.971 68.214,218.972 68.700 M250.817 73.386 C 250.817 74.408,250.846 74.825,250.882 74.315 C 250.918 73.804,250.918 72.969,250.882 72.458 C 250.846 71.947,250.817 72.365,250.817 73.386 M375.468 73.386 C 375.468 73.824,375.503 74.003,375.545 73.784 C 375.587 73.565,375.587 73.207,375.545 72.989 C 375.503 72.770,375.468 72.949,375.468 73.386 M375.489 76.822 C 375.436 76.961,375.422 77.259,375.458 77.485 C 375.506 77.787,375.547 77.720,375.613 77.233 C 375.706 76.546,375.657 76.384,375.489 76.822 M331.981 78.603 C 331.981 79.478,332.011 79.859,332.048 79.448 C 332.085 79.038,332.085 78.322,332.049 77.857 C 332.012 77.392,331.982 77.728,331.981 78.603 M299.735 79.752 L 299.293 79.894 299.779 79.912 C 300.046 79.921,300.265 79.850,300.265 79.752 C 300.265 79.655,300.245 79.584,300.221 79.593 C 300.197 79.603,299.978 79.675,299.735 79.752 M276.498 81.806 C 276.436 81.966,276.471 82.024,276.587 81.952 C 276.710 81.876,276.756 82.012,276.717 82.338 C 276.674 82.705,276.741 82.857,276.967 82.901 C 277.137 82.934,277.279 82.856,277.281 82.727 C 277.283 82.598,277.448 82.691,277.650 82.935 C 277.850 83.179,277.968 83.285,277.910 83.172 C 277.852 83.058,277.905 82.925,278.027 82.876 C 278.169 82.819,278.143 82.781,277.958 82.773 C 277.798 82.765,277.427 82.485,277.133 82.150 C 276.726 81.687,276.575 81.605,276.498 81.806 M331.973 86.914 C 331.974 87.498,332.007 87.715,332.047 87.397 C 332.086 87.080,332.085 86.602,332.045 86.336 C 332.005 86.071,331.972 86.331,331.973 86.914 M368.728 87.592 C 368.443 87.895,368.409 88.005,368.599 88.005 C 368.741 88.005,368.842 87.919,368.823 87.813 C 368.804 87.708,368.875 87.637,368.980 87.656 C 369.086 87.675,369.172 87.575,369.172 87.435 C 369.172 87.110,369.185 87.105,368.728 87.592 M369.173 88.032 C 368.910 88.306,368.741 88.576,368.796 88.631 C 368.945 88.780,369.584 88.581,369.584 88.386 C 369.584 88.295,369.672 88.274,369.779 88.340 C 369.919 88.426,369.921 88.362,369.785 88.108 C 369.682 87.915,369.647 87.706,369.709 87.645 C 369.770 87.583,369.782 87.533,369.735 87.533 C 369.689 87.533,369.436 87.758,369.173 88.032 M365.871 88.417 L 364.898 88.537 365.816 88.565 C 366.321 88.581,366.783 88.515,366.844 88.417 C 366.904 88.320,366.928 88.253,366.898 88.269 C 366.868 88.285,366.406 88.352,365.871 88.417 M179.708 88.550 C 183.769 88.576,190.413 88.576,194.474 88.550 C 198.534 88.523,195.212 88.502,187.091 88.502 C 178.970 88.502,175.648 88.523,179.708 88.550 M358.311 88.544 C 358.579 88.585,359.016 88.585,359.284 88.544 C 359.551 88.503,359.332 88.470,358.798 88.470 C 358.263 88.470,358.044 88.503,358.311 88.544 M215.918 91.556 C 215.916 91.969,215.946 92.308,215.983 92.308 C 216.131 92.308,216.198 91.242,216.063 91.030 C 215.978 90.895,215.919 91.105,215.918 91.556 M393.353 96.432 C 393.090 96.658,392.865 97.036,392.852 97.272 C 392.838 97.508,392.769 97.795,392.697 97.910 C 392.626 98.025,392.668 98.177,392.791 98.248 C 392.914 98.319,392.954 98.310,392.880 98.228 C 392.734 98.068,393.615 97.049,393.800 97.164 C 393.861 97.202,393.912 96.960,393.912 96.627 C 393.912 95.907,393.948 95.920,393.353 96.432 M142.688 96.278 C 142.641 96.301,142.591 97.259,142.636 97.259 C 142.701 97.259,143.590 96.378,143.590 96.314 C 143.590 96.278,142.754 96.244,142.688 96.278 M393.752 96.637 C 393.752 96.781,393.572 97.068,393.352 97.275 C 392.922 97.678,392.877 97.453,393.251 96.773 C 393.501 96.318,393.752 96.250,393.752 96.637 M271.604 100.107 C 271.839 100.200,272.094 100.214,272.169 100.138 C 272.245 100.062,272.052 99.986,271.741 99.969 C 271.211 99.940,271.202 99.948,271.604 100.107 M294.299 100.003 C 294.373 100.084,294.259 100.335,294.047 100.561 C 293.835 100.787,293.696 101.001,293.736 101.037 C 293.777 101.073,293.991 100.880,294.212 100.608 C 294.514 100.235,294.558 100.081,294.389 99.984 C 294.265 99.913,294.225 99.921,294.299 100.003 M294.770 100.731 C 294.376 101.160,294.371 101.182,294.718 101.002 C 294.926 100.894,295.142 100.684,295.199 100.535 C 295.344 100.158,295.263 100.195,294.770 100.731 M321.071 102.180 C 320.910 102.358,320.778 102.594,320.778 102.705 C 320.778 102.816,320.668 102.864,320.533 102.813 C 320.355 102.744,320.294 102.865,320.310 103.253 L 320.332 103.788 320.788 103.350 C 321.039 103.110,321.312 102.974,321.393 103.048 C 321.475 103.122,321.483 103.080,321.410 102.954 C 321.338 102.828,321.384 102.590,321.514 102.424 C 321.727 102.152,321.720 102.146,321.441 102.365 C 321.254 102.512,321.132 102.533,321.132 102.418 C 321.132 102.313,321.271 102.147,321.441 102.048 C 321.611 101.949,321.664 101.865,321.557 101.862 C 321.451 101.859,321.232 102.002,321.071 102.180 M320.842 103.109 C 320.562 103.389,320.483 103.409,320.483 103.201 C 320.483 103.054,320.550 102.975,320.632 103.025 C 320.714 103.076,320.830 102.989,320.890 102.833 C 320.950 102.677,321.044 102.594,321.100 102.650 C 321.155 102.705,321.039 102.912,320.842 103.109 M343.855 103.095 C 343.663 103.405,344.027 103.863,344.248 103.592 C 344.386 103.423,344.373 103.300,344.200 103.141 C 344.052 103.004,343.922 102.987,343.855 103.095 M343.882 104.413 C 343.807 104.609,343.889 104.685,344.170 104.683 C 344.386 104.682,344.483 104.621,344.385 104.549 C 344.288 104.476,344.159 104.355,344.098 104.279 C 344.037 104.203,343.940 104.263,343.882 104.413 M358.364 105.842 C 358.141 106.011,357.798 106.071,357.391 106.010 L 356.764 105.917 357.349 106.223 C 357.833 106.475,357.961 106.487,358.083 106.289 C 358.199 106.102,358.250 106.123,358.317 106.385 C 358.388 106.662,358.406 106.650,358.423 106.311 C 358.435 106.087,358.523 105.952,358.621 106.012 C 358.718 106.072,358.798 105.998,358.798 105.846 C 358.798 105.514,358.798 105.514,358.364 105.842 M355.599 106.171 C 355.713 106.308,355.966 106.376,356.166 106.323 C 356.592 106.212,356.280 105.931,355.725 105.927 C 355.462 105.925,355.436 105.974,355.599 106.171 M356.015 107.642 C 356.284 107.683,356.681 107.682,356.899 107.640 C 357.116 107.598,356.897 107.565,356.410 107.566 C 355.924 107.567,355.746 107.602,356.015 107.642 M357.250 107.991 C 357.420 108.036,357.699 108.036,357.869 107.991 C 358.039 107.947,357.900 107.910,357.560 107.910 C 357.219 107.910,357.080 107.947,357.250 107.991 M291.127 113.477 C 291.188 113.576,291.081 113.800,290.889 113.974 C 290.533 114.296,290.392 114.878,290.719 114.675 C 290.818 114.614,290.853 114.490,290.796 114.399 C 290.740 114.307,290.812 114.187,290.957 114.132 C 291.305 113.998,291.458 113.570,291.212 113.418 C 291.102 113.350,291.064 113.376,291.127 113.477 M279.006 114.719 C 279.421 114.756,280.058 114.755,280.420 114.717 C 280.782 114.679,280.442 114.649,279.664 114.649 C 278.886 114.650,278.590 114.681,279.006 114.719 M284.487 114.719 C 284.903 114.756,285.540 114.755,285.902 114.717 C 286.264 114.679,285.924 114.649,285.146 114.649 C 284.368 114.650,284.072 114.681,284.487 114.719 M252.879 120.353 C 252.876 120.459,253.031 120.689,253.223 120.863 C 253.415 121.037,253.519 121.268,253.454 121.376 C 253.389 121.485,253.476 121.460,253.647 121.322 C 253.942 121.082,253.941 121.061,253.636 120.893 C 253.460 120.795,253.219 120.590,253.100 120.437 C 252.982 120.284,252.882 120.246,252.879 120.353 M279.222 131.742 C 279.222 131.839,279.421 131.919,279.664 131.919 C 279.907 131.919,280.106 131.839,280.106 131.742 C 280.106 131.645,279.907 131.565,279.664 131.565 C 279.421 131.565,279.222 131.645,279.222 131.742 M285.765 131.742 C 285.765 131.839,285.924 131.919,286.118 131.919 C 286.313 131.919,286.472 131.839,286.472 131.742 C 286.472 131.645,286.313 131.565,286.118 131.565 C 285.924 131.565,285.765 131.645,285.765 131.742 " stroke="none" fill="#5c5454" fill-rule="evenodd"></path><path id="path3" d="M19.678 44.869 C 20.143 44.906,20.859 44.905,21.270 44.868 C 21.680 44.831,21.300 44.801,20.424 44.802 C 19.549 44.802,19.213 44.833,19.678 44.869 M160.078 73.107 C 159.715 73.440,159.457 73.745,159.505 73.785 C 159.554 73.825,159.892 73.553,160.256 73.180 C 161.079 72.339,160.966 72.293,160.078 73.107 " stroke="none" fill="#d4c82c" fill-rule="evenodd"></path><path id="path4" d="M164.060 27.711 C 164.280 27.754,164.599 27.752,164.768 27.708 C 164.937 27.663,164.757 27.629,164.368 27.631 C 163.979 27.633,163.840 27.669,164.060 27.711 M213.484 27.708 C 213.654 27.753,213.932 27.753,214.103 27.708 C 214.273 27.664,214.134 27.627,213.793 27.627 C 213.453 27.627,213.313 27.664,213.484 27.708 M227.542 27.711 C 227.761 27.753,228.119 27.753,228.338 27.711 C 228.557 27.669,228.378 27.634,227.940 27.634 C 227.502 27.634,227.323 27.669,227.542 27.711 M233.201 27.711 C 233.420 27.753,233.778 27.753,233.996 27.711 C 234.215 27.669,234.036 27.634,233.599 27.634 C 233.161 27.634,232.982 27.669,233.201 27.711 M304.377 27.708 C 304.547 27.753,304.825 27.753,304.996 27.708 C 305.166 27.664,305.027 27.627,304.686 27.627 C 304.346 27.627,304.206 27.664,304.377 27.708 M342.573 27.708 C 342.743 27.753,343.022 27.753,343.192 27.708 C 343.362 27.664,343.223 27.627,342.882 27.627 C 342.542 27.627,342.403 27.664,342.573 27.708 M348.145 27.711 C 348.365 27.754,348.684 27.752,348.853 27.708 C 349.022 27.663,348.842 27.629,348.453 27.631 C 348.064 27.633,347.925 27.669,348.145 27.711 M391.293 27.711 C 391.513 27.754,391.831 27.752,392.000 27.708 C 392.169 27.663,391.989 27.629,391.600 27.631 C 391.211 27.633,391.073 27.669,391.293 27.711 M384.129 29.797 C 384.131 30.186,384.168 30.324,384.210 30.104 C 384.252 29.884,384.251 29.566,384.206 29.397 C 384.162 29.228,384.128 29.408,384.129 29.797 M310.389 30.537 C 310.559 30.582,310.838 30.582,311.008 30.537 C 311.178 30.493,311.039 30.457,310.698 30.457 C 310.358 30.457,310.219 30.493,310.389 30.537 M224.631 32.803 C 224.632 33.289,224.666 33.467,224.707 33.198 C 224.748 32.929,224.746 32.532,224.704 32.314 C 224.663 32.097,224.629 32.317,224.631 32.803 M337.799 34.394 C 337.801 34.783,337.837 34.922,337.879 34.702 C 337.922 34.482,337.920 34.163,337.876 33.994 C 337.831 33.825,337.797 34.005,337.799 34.394 M221.805 40.937 C 221.806 41.521,221.839 41.738,221.879 41.420 C 221.918 41.103,221.917 40.625,221.877 40.359 C 221.837 40.094,221.804 40.354,221.805 40.937 M259.457 41.379 C 259.457 41.720,259.494 41.859,259.538 41.689 C 259.583 41.519,259.583 41.240,259.538 41.070 C 259.494 40.900,259.457 41.039,259.457 41.379 M256.628 44.562 C 256.628 44.903,256.665 45.042,256.709 44.872 C 256.753 44.702,256.753 44.423,256.709 44.253 C 256.665 44.083,256.628 44.222,256.628 44.562 M178.276 50.075 C 178.257 50.531,178.157 50.750,177.940 50.806 C 177.650 50.882,177.650 50.889,177.945 50.908 C 178.329 50.933,178.478 50.595,178.377 49.927 C 178.313 49.497,178.299 49.518,178.276 50.075 M253.634 52.697 C 253.634 53.232,253.667 53.450,253.708 53.183 C 253.748 52.916,253.748 52.478,253.708 52.210 C 253.667 51.943,253.634 52.162,253.634 52.697 M378.310 53.139 C 378.311 53.917,378.342 54.213,378.379 53.797 C 378.416 53.381,378.416 52.745,378.378 52.383 C 378.340 52.020,378.309 52.361,378.310 53.139 M175.461 53.050 C 175.461 53.391,175.497 53.530,175.542 53.360 C 175.586 53.190,175.586 52.911,175.542 52.741 C 175.497 52.571,175.461 52.710,175.461 53.050 M305.805 54.730 C 305.806 55.411,305.838 55.668,305.876 55.301 C 305.914 54.934,305.914 54.377,305.875 54.063 C 305.836 53.749,305.804 54.050,305.805 54.730 M334.814 57.383 C 334.815 58.453,334.844 58.868,334.879 58.305 C 334.914 57.742,334.914 56.867,334.878 56.360 C 334.843 55.853,334.814 56.313,334.814 57.383 M218.966 57.737 C 218.968 58.126,219.004 58.264,219.046 58.044 C 219.089 57.824,219.087 57.506,219.043 57.337 C 218.999 57.168,218.964 57.347,218.966 57.737 M250.802 59.328 C 250.803 59.814,250.838 59.992,250.878 59.723 C 250.919 59.455,250.918 59.057,250.876 58.839 C 250.834 58.622,250.801 58.842,250.802 59.328 M305.809 67.728 C 305.809 68.554,305.839 68.893,305.877 68.479 C 305.914 68.066,305.914 67.389,305.877 66.976 C 305.839 66.563,305.809 66.901,305.809 67.728 M375.468 69.142 C 375.468 69.580,375.503 69.759,375.545 69.540 C 375.587 69.321,375.587 68.963,375.545 68.744 C 375.503 68.526,375.468 68.705,375.468 69.142 M331.969 71.883 C 331.971 72.370,332.005 72.548,332.046 72.279 C 332.086 72.010,332.085 71.612,332.043 71.395 C 332.001 71.177,331.968 71.397,331.969 71.883 M302.959 73.210 C 302.959 73.550,302.995 73.689,303.040 73.519 C 303.084 73.349,303.084 73.070,303.040 72.900 C 302.995 72.730,302.959 72.869,302.959 73.210 M250.800 78.868 C 250.800 79.306,250.834 79.485,250.876 79.266 C 250.918 79.047,250.918 78.689,250.876 78.470 C 250.834 78.252,250.800 78.431,250.800 78.868 M155.125 78.868 C 155.125 79.209,155.161 79.348,155.206 79.178 C 155.250 79.008,155.250 78.729,155.206 78.559 C 155.161 78.389,155.125 78.528,155.125 78.868 M215.981 81.167 C 215.981 82.188,216.010 82.606,216.045 82.095 C 216.081 81.585,216.081 80.749,216.045 80.239 C 216.010 79.728,215.981 80.146,215.981 81.167 M253.634 84.704 C 253.634 85.239,253.667 85.458,253.708 85.190 C 253.748 84.923,253.748 84.485,253.708 84.218 C 253.667 83.950,253.634 84.169,253.634 84.704 M355.836 85.710 C 356.006 85.754,356.284 85.754,356.454 85.710 C 356.625 85.665,356.485 85.629,356.145 85.629 C 355.805 85.629,355.665 85.665,355.836 85.710 M331.963 90.981 C 331.965 91.370,332.001 91.509,332.044 91.289 C 332.086 91.069,332.084 90.751,332.040 90.581 C 331.996 90.412,331.961 90.592,331.963 90.981 M215.956 97.966 C 215.956 98.307,215.993 98.446,216.037 98.276 C 216.081 98.106,216.081 97.827,216.037 97.657 C 215.993 97.487,215.956 97.626,215.956 97.966 M137.811 102.741 C 137.811 103.373,137.843 103.632,137.882 103.316 C 137.921 103.000,137.921 102.482,137.882 102.166 C 137.843 101.850,137.811 102.109,137.811 102.741 M255.560 103.050 C 256.794 103.080,258.863 103.080,260.158 103.050 C 261.452 103.020,260.442 102.995,257.913 102.995 C 255.385 102.995,254.326 103.019,255.560 103.050 M265.031 103.043 C 265.250 103.085,265.608 103.085,265.827 103.043 C 266.046 103.000,265.866 102.966,265.429 102.966 C 264.991 102.966,264.812 103.000,265.031 103.043 M297.123 107.339 C 297.123 107.679,297.160 107.818,297.204 107.648 C 297.249 107.478,297.249 107.199,297.204 107.029 C 297.160 106.859,297.123 106.998,297.123 107.339 " stroke="none" fill="#7c902c" fill-rule="evenodd"></path></g></svg>